<svg width="330" height="220" viewBox="0 0 330 220" fill="none" xmlns="http://www.w3.org/2000/svg">
<path d="M137.594 57.7969L131.916 107.834C131.827 108.343 131.551 108.62 131.086 108.664L124.246 108.896C123.759 108.896 123.516 108.686 123.516 108.266L125.973 86.4512L117.539 86.75L115.148 107.834C115.082 108.365 114.794 108.642 114.285 108.664L107.445 108.896C106.958 108.896 106.715 108.686 106.715 108.266L112.426 58.0293C112.514 57.5645 112.802 57.3099 113.289 57.2656L119.963 57C120.538 57.0221 120.826 57.2878 120.826 57.7969L118.402 78.9473L126.869 78.6484L129.193 58.0293C129.26 57.5423 129.559 57.2878 130.09 57.2656L136.73 57C137.306 57.0221 137.594 57.2878 137.594 57.7969Z" fill="var(--color-text)"/>
<path d="M171.295 69.4844L166.979 107.768C166.912 108.343 166.624 108.642 166.115 108.664L159.408 108.896C158.943 108.852 158.711 108.642 158.711 108.266L159.342 103.75C158.324 105.477 157.206 106.805 155.988 107.734C154.793 108.664 153.443 109.129 151.938 109.129C150.432 109.129 149.148 108.874 148.086 108.365C147.023 107.834 146.149 107.148 145.463 106.307C144.799 105.443 144.257 104.414 143.836 103.219C143.061 101.094 142.674 98.194 142.674 94.5195C142.674 90.8229 142.917 87.6908 143.404 85.123C143.913 82.5553 144.356 80.6074 144.732 79.2793C145.109 77.929 145.607 76.5456 146.227 75.1289C146.868 73.7122 147.588 72.528 148.385 71.5762C150.2 69.4069 152.491 68.3223 155.258 68.3223C157.316 68.3223 158.888 68.8203 159.973 69.8164C161.057 70.7904 161.965 72.2402 162.695 74.166L163.094 69.6504C163.138 69.1634 163.415 68.8978 163.924 68.8535L170.432 68.6211C171.007 68.6654 171.295 68.9531 171.295 69.4844ZM151.041 93.5566C151.041 98.847 152.458 101.492 155.291 101.492C156.531 101.492 157.538 100.928 158.312 99.7988C159.087 98.6478 159.751 96.3568 160.305 92.9258C160.88 89.4948 161.168 86.9935 161.168 85.4219C161.168 83.8503 161.157 82.8542 161.135 82.4336C161.113 82.013 161.068 81.4596 161.002 80.7734C160.936 80.0651 160.814 79.4785 160.637 79.0137C160.46 78.5267 160.227 78.0397 159.939 77.5527C159.364 76.6009 158.434 76.125 157.15 76.125C155.867 76.125 154.848 76.7005 154.096 77.8516C153.343 78.9805 152.757 80.4967 152.336 82.4004C151.473 86.4733 151.041 90.1921 151.041 93.5566Z" fill="var(--color-text)"/>
<path d="M189.457 69.4844L189.092 72.5391C192.279 69.7279 195.334 68.3223 198.256 68.3223C201.975 68.3223 204.321 70.3587 205.295 74.4316C205.561 75.5384 205.693 76.5898 205.693 77.5859C205.693 78.5599 205.66 79.3457 205.594 79.9434L202.406 107.768C202.318 108.321 202.041 108.62 201.576 108.664L194.869 108.896C194.382 108.852 194.139 108.642 194.139 108.266L197.16 81.9688C197.227 81.3932 197.26 80.873 197.26 80.4082C197.26 78.5931 196.828 77.3646 195.965 76.7227C195.124 76.0586 194.05 75.7266 192.744 75.7266C191.438 75.7266 190.077 76.0033 188.66 76.5566L185.107 107.768C185.019 108.321 184.742 108.62 184.277 108.664L177.57 108.896C177.083 108.852 176.84 108.642 176.84 108.266L181.223 69.6504C181.311 69.1634 181.588 68.8978 182.053 68.8535L188.561 68.6211C189.158 68.6432 189.457 68.931 189.457 69.4844Z" fill="var(--color-text)"/>
<path d="M229.434 109.959L230.297 102.82C229.19 104.857 228.006 106.417 226.744 107.502C225.505 108.587 224.088 109.129 222.494 109.129C220.923 109.129 219.605 108.874 218.543 108.365C217.48 107.834 216.606 107.148 215.92 106.307C215.256 105.443 214.714 104.414 214.293 103.219C213.518 101.094 213.131 98.194 213.131 94.5195C213.131 90.8229 213.374 87.6908 213.861 85.123C214.37 82.5553 214.813 80.6074 215.189 79.2793C215.566 77.929 216.064 76.5456 216.684 75.1289C217.326 73.7122 218.045 72.528 218.842 71.5762C220.657 69.4069 222.948 68.3223 225.715 68.3223C227.751 68.3223 229.312 68.8092 230.396 69.7832C231.481 70.7572 232.4 72.207 233.152 74.1328L233.484 69.6836C233.529 69.1523 233.816 68.8757 234.348 68.8535L241.055 68.6211C241.52 68.6875 241.752 68.9199 241.752 69.3184L237.236 109.594C236.594 115.548 234.746 119.787 231.691 122.311C229.279 124.325 226.036 125.332 221.963 125.332C219.373 125.332 216.75 125.033 214.094 124.436C213.717 124.369 213.463 124.27 213.33 124.137C213.197 124.026 213.131 123.805 213.131 123.473L213.795 117.463C213.861 116.865 214.105 116.566 214.525 116.566C214.813 116.566 215.621 116.788 216.949 117.23C218.277 117.673 219.76 117.895 221.398 117.895C223.036 117.895 224.309 117.74 225.217 117.43C226.146 117.142 226.888 116.644 227.441 115.936C228.415 114.74 229.079 112.748 229.434 109.959ZM221.498 93.5566C221.498 98.847 222.915 101.492 225.748 101.492C226.988 101.492 227.995 100.928 228.77 99.7988C229.544 98.6478 230.208 96.3568 230.762 92.9258C231.337 89.4948 231.625 86.9935 231.625 85.4219C231.625 83.8503 231.614 82.8542 231.592 82.4336C231.57 82.013 231.525 81.4596 231.459 80.7734C231.393 80.0651 231.271 79.4785 231.094 79.0137C230.917 78.5267 230.684 78.0397 230.396 77.5527C229.821 76.6009 228.891 76.125 227.607 76.125C226.324 76.125 225.305 76.7005 224.553 77.8516C223.8 78.9805 223.214 80.4967 222.793 82.4004C221.93 86.4733 221.498 90.1921 221.498 93.5566Z" fill="var(--color-text)"/>
<path d="M276.549 69.4844L272.232 107.768C272.166 108.343 271.878 108.642 271.369 108.664L264.662 108.896C264.197 108.852 263.965 108.642 263.965 108.266L264.596 103.75C263.577 105.477 262.46 106.805 261.242 107.734C260.047 108.664 258.697 109.129 257.191 109.129C255.686 109.129 254.402 108.874 253.34 108.365C252.277 107.834 251.403 107.148 250.717 106.307C250.053 105.443 249.51 104.414 249.09 103.219C248.315 101.094 247.928 98.194 247.928 94.5195C247.928 90.8229 248.171 87.6908 248.658 85.123C249.167 82.5553 249.61 80.6074 249.986 79.2793C250.363 77.929 250.861 76.5456 251.48 75.1289C252.122 73.7122 252.842 72.528 253.639 71.5762C255.454 69.4069 257.745 68.3223 260.512 68.3223C262.57 68.3223 264.142 68.8203 265.227 69.8164C266.311 70.7904 267.219 72.2402 267.949 74.166L268.348 69.6504C268.392 69.1634 268.669 68.8978 269.178 68.8535L275.686 68.6211C276.261 68.6654 276.549 68.9531 276.549 69.4844ZM256.295 93.5566C256.295 98.847 257.712 101.492 260.545 101.492C261.785 101.492 262.792 100.928 263.566 99.7988C264.341 98.6478 265.005 96.3568 265.559 92.9258C266.134 89.4948 266.422 86.9935 266.422 85.4219C266.422 83.8503 266.411 82.8542 266.389 82.4336C266.367 82.013 266.322 81.4596 266.256 80.7734C266.189 80.0651 266.068 79.4785 265.891 79.0137C265.714 78.5267 265.481 78.0397 265.193 77.5527C264.618 76.6009 263.688 76.125 262.404 76.125C261.12 76.125 260.102 76.7005 259.35 77.8516C258.597 78.9805 258.01 80.4967 257.59 82.4004C256.727 86.4733 256.295 90.1921 256.295 93.5566Z" fill="var(--color-text)"/>
<path d="M304.439 77.0879L300.887 76.7227C298.009 76.7227 295.596 77.2982 293.648 78.4492L290.361 107.734C290.273 108.288 289.996 108.587 289.531 108.631L282.824 108.896C282.337 108.852 282.094 108.642 282.094 108.266L286.477 69.6504C286.565 69.1634 286.842 68.8978 287.307 68.8535L293.781 68.6211C294.379 68.6432 294.678 68.931 294.678 69.4844L294.279 72.9043C295.696 71.4655 297.068 70.3477 298.396 69.5508C299.725 68.7318 301.053 68.3223 302.381 68.3223C303.731 68.3223 304.76 68.3776 305.469 68.4883C305.934 68.5768 306.166 68.8867 306.166 69.418C306.166 70.9453 305.911 73.2142 305.402 76.2246C305.292 76.8001 304.971 77.0879 304.439 77.0879Z" fill="var(--color-text)"/>
<path d="M114.564 127.264H125.464L136.764 162.764H126.864L124.714 155.814H115.264L113.164 162.764H103.214L114.564 127.264ZM123.164 149.314L120.014 136.814L116.714 149.314H123.164Z" fill="var(--color-text)"/>
<path d="M139.714 162.764V127.264H155.014C156.747 127.264 158.347 127.614 159.814 128.314C161.281 129.014 162.547 129.964 163.614 131.164C164.681 132.33 165.497 133.647 166.064 135.114C166.664 136.58 166.964 138.064 166.964 139.564C166.964 141.664 166.464 143.647 165.464 145.514C164.497 147.38 163.131 148.914 161.364 150.114C159.631 151.28 157.597 151.864 155.264 151.864H149.464V162.764H139.714ZM149.464 143.364H154.614C155.014 143.364 155.397 143.247 155.764 143.014C156.131 142.78 156.431 142.38 156.664 141.814C156.931 141.247 157.064 140.497 157.064 139.564C157.064 138.564 156.914 137.797 156.614 137.264C156.347 136.697 155.997 136.314 155.564 136.114C155.164 135.88 154.764 135.764 154.364 135.764H149.464V143.364Z" fill="var(--color-text)"/>
<path d="M170.866 162.764V127.264H180.616V162.764H170.866Z" fill="var(--color-text)"/>
<line x1="-2.62268e-07" y1="35" x2="330" y2="35" stroke="#FFB35A" stroke-width="6"/>
<line x1="2.62268e-07" y1="188" x2="330" y2="188" stroke="#FFB35A" stroke-width="6"/>
<path d="M79 82L50.5 53L22 82" stroke="#FFB35A" stroke-width="8" stroke-linecap="round" stroke-linejoin="round"/>
<path d="M79 111L50.5 82L22 111" stroke="#FFB35A" stroke-width="8" stroke-linecap="round" stroke-linejoin="round"/>
<path d="M79 140L50.5 111L22 140" stroke="#FFB35A" stroke-width="8" stroke-linecap="round" stroke-linejoin="round"/>
<path d="M79 169L50.5 140L22 169" stroke="#FFB35A" stroke-width="8" stroke-linecap="round" stroke-linejoin="round"/>
</svg>
