<svg xmlns="http://www.w3.org/2000/svg" width="330" height="220" fill="none" viewBox="0 0 330 220">
  <g fill="#438EFD" filter="url(#a)">
    <path d="M127.523 80.438c0 .312-.211.468-.632.468l-5.274.188c-.234-.016-.406-.164-.515-.446l-5.883-14.906-1.641 14.602c-.047.375-.242.57-.586.586l-4.898.164c-.344-.031-.516-.18-.516-.446l4.055-35.273c.031-.281.101-.469.211-.563.109-.109.937-.226 2.484-.351 1.547-.14 3.61-.211 6.188-.211s4.562.688 5.953 2.063c1.406 1.359 2.109 3.117 2.109 5.273 0 2.156-.258 4.062-.773 5.719a11.823 11.823 0 0 1-2.555 4.43c-1.188 1.312-2.672 2.288-4.453 2.93l6.656 15.491c.047.094.07.188.07.281Zm-10.5-30.727-1.312 11.648c2.891-.172 4.883-1.484 5.977-3.937.593-1.344.89-2.703.89-4.078 0-1.39-.289-2.36-.867-2.907-.563-.562-1.383-.843-2.461-.843-1.078 0-1.82.039-2.227.117ZM141.727 45.047l-2.696 24.023c-.219 1.844-.328 3.157-.328 3.938 0 .781.219 1.445.656 1.992.438.547 1.149.82 2.133.82.985 0 1.735-.492 2.25-1.476.516-.985.899-2.563 1.149-4.735l2.742-24.421c.047-.344.258-.524.633-.54l4.734-.187c.391.016.586.203.586.562l-2.695 24.047c-.547 4.922-1.813 8.29-3.797 10.102-1.61 1.453-3.711 2.18-6.305 2.18-2.578 0-4.555-.672-5.93-2.016-1.359-1.36-2.039-3.36-2.039-6 0-1.266.078-2.586.235-3.961l2.765-24.188c.032-.203.078-.335.141-.398.078-.078.227-.125.445-.14l4.735-.165c.39.016.586.203.586.563ZM179.062 44.953l-4.031 35.297c-.062.36-.265.555-.609.586l-4.641.258c-.265 0-.422-.149-.469-.446l-4.921-25.03-1.735 24.726c-.015.375-.218.57-.609.586l-4.828.164c-.344 0-.516-.149-.516-.446l4.055-35.46c.062-.329.265-.508.609-.54l4.758-.257c.219 0 .359.047.422.14.078.078.141.219.187.422l4.758 23.649 1.641-23.415c.015-.343.226-.523.633-.539l4.664-.257c.422 0 .632.187.632.562ZM201.188 44.484c.343 0 .515.149.515.446l.281 27.093 5.813-26.812c.109-.344.297-.531.562-.563l4.43-.164c.313.032.469.18.469.446l-9.422 35.39c-.109.344-.281.532-.516.563l-5.414.21c-.344-.015-.515-.21-.515-.585l-.211-21.961-4.524 21.797c-.094.375-.281.562-.562.562l-5.625.188c-.328-.016-.508-.211-.539-.586l-1.969-35.297c0-.36.211-.547.633-.563l4.875-.164c.343 0 .515.149.515.446l.328 27.539 5.954-27.258c.062-.328.304-.516.726-.563l4.196-.164ZM229.125 45.023l2.742 35.297c0 .36-.203.555-.609.586l-4.899.188c-.328 0-.492-.149-.492-.446l-.351-7.734-5.321.211-1.757 7.219c-.047.219-.11.367-.188.445-.078.078-.219.125-.422.14l-4.851.165c-.313 0-.469-.149-.469-.446l10.289-35.46c.109-.344.32-.524.633-.54l5.156-.187c.328.016.508.203.539.562Zm-4.43 9.657-3.281 13.453 3.891-.14-.61-13.313ZM243.984 44.93l2.672 13.383 4.805-13.126c.125-.343.32-.523.586-.539l4.828-.164a.686.686 0 0 1 .445.188c.125.11.188.226.188.351l-8.742 19.547-1.805 15.774c-.047.375-.25.57-.609.586l-4.829.164c-.343 0-.515-.149-.515-.446l1.758-15.562-4.782-20.063c0-.218.211-.343.633-.375l4.758-.187c.344.016.547.172.609.469ZM135.25 110.844c-1.792 6.937-7.396 10.416-16.812 10.437L116.469 139c-.063.5-.323.76-.781.781l-6.563.344c-.458-.042-.687-.24-.687-.594l5.406-47.281c.083-.438.354-.677.812-.719 3.896-.354 7.615-.531 11.156-.531 7.042 0 10.563 3.375 10.563 10.125 0 3.687-.375 6.927-1.125 9.719ZM121 98.281l-1.781 15.781c3.604 0 6.031-.75 7.281-2.25s1.875-4.416 1.875-8.75c0-1.666-.448-2.895-1.344-3.687-.896-.792-2.041-1.188-3.437-1.188s-2.261.032-2.594.094ZM167.031 139.25c0 .417-.281.625-.843.625l-7.032.25c-.312-.021-.541-.219-.687-.594l-7.844-19.875-2.187 19.469c-.063.5-.323.76-.782.781l-6.531.219c-.458-.042-.687-.24-.687-.594l5.406-47.031c.041-.375.135-.625.281-.75.146-.146 1.25-.302 3.313-.469 2.062-.187 4.812-.281 8.25-.281 3.437 0 6.083.917 7.937 2.75 1.875 1.813 2.813 4.156 2.813 7.031s-.344 5.417-1.032 7.625c-.687 2.188-1.823 4.156-3.406 5.906-1.583 1.75-3.562 3.053-5.938 3.907l8.876 20.656c.062.125.093.25.093.375Zm-14-40.969-1.75 15.531c3.854-.229 6.511-1.979 7.969-5.25.792-1.791 1.188-3.604 1.188-5.437 0-1.854-.386-3.146-1.157-3.875-.75-.75-1.843-1.125-3.281-1.125-1.438 0-2.427.052-2.969.156ZM184.188 140.469c-3.5 0-6.146-1.042-7.938-3.125-1.792-2.084-2.688-4.688-2.688-7.813a116.4 116.4 0 0 1 2.407-23.593c1.271-6.105 3.031-10.188 5.281-12.25 2.125-1.917 4.927-2.876 8.406-2.876 3.5 0 6.146 1.053 7.938 3.157 1.812 2.104 2.718 4.698 2.718 7.781 0 3.062-.197 6.781-.593 11.156-.396 4.354-.886 8-1.469 10.938-.583 2.916-1.083 5.052-1.5 6.406a23.492 23.492 0 0 1-1.656 4.062c-.709 1.376-1.532 2.48-2.469 3.313-2.104 1.896-4.917 2.844-8.437 2.844Zm.812-7.375c2.646 0 4.344-2.438 5.094-7.313.5-3.229 1-7.25 1.5-12.062.5-4.813.75-8.198.75-10.157 0-1.958-.323-3.343-.969-4.156-.625-.812-1.521-1.219-2.687-1.219-2.417 0-4.053 2.448-4.907 7.344-.5 2.875-1 6.781-1.5 11.719-.5 4.917-.75 8.385-.75 10.406 0 2.021.323 3.438.969 4.25.667.792 1.5 1.188 2.5 1.188ZM223.5 92.063l-3.844 34.249c-.583 5.334-2.354 9.042-5.312 11.126-2.75 1.937-6.604 2.906-11.563 2.906-.521 0-.781-.25-.781-.75l.75-6.094c.104-.5.365-.75.781-.75 3.792 0 6.198-.865 7.219-2.594.479-.791.792-1.844.938-3.156l3.937-34.75c.042-.25.104-.427.187-.531.105-.104.303-.167.594-.188l6.282-.219c.541.042.812.292.812.75ZM247.312 118.625l-9.718.375-1.469 12.812 11.969-.406c.541.021.812.292.812.813l-.812 6.469c-.042.437-.313.708-.813.812l-19.219.625c-.458 0-.687-.198-.687-.594l5.406-47.281c.084-.438.354-.677.813-.719l17.125-.594c.521.063.781.344.781.844l-.781 6.469c-.063.52-.334.802-.813.844l-10.062.281L238.5 111l9.625-.344c.542.021.813.292.813.813l-.813 6.375c-.083.479-.354.739-.813.781ZM275.781 138.594c-.041.25-.114.427-.219.531-.104.104-1.124.333-3.062.687a32.536 32.536 0 0 1-5.875.532c-3.25 0-5.74-1.052-7.469-3.156-1.729-2.105-2.594-4.969-2.594-8.594 0-6.438.771-13.917 2.313-22.438.813-4.583 1.813-7.802 3-9.656 1.25-1.938 2.75-3.292 4.5-4.063 2.187-.958 4.521-1.437 7-1.437 2.5 0 4.167.073 5 .219.854.125 1.333.198 1.437.219.271.083.407.343.407.78l-.719 5.813c-.083.542-.292.813-.625.813s-1.104-.084-2.313-.25c-1.208-.188-2.187-.281-2.937-.281-2 0-3.521.51-4.563 1.53-1.041 1.001-1.822 2.938-2.343 5.813-.5 2.854-.99 6.698-1.469 11.532-.479 4.812-.719 8.5-.719 11.062 0 3.021 1.334 4.531 4 4.531.771 0 2.115-.125 4.031-.375 1.917-.271 3.011-.406 3.282-.406.437 0 .656.26.656.781l-.719 5.813ZM285.938 91.656l20.25-.719c.479.021.718.282.718.782l-.812 6.406c-.042.313-.115.531-.219.656-.083.125-.271.198-.563.219l-6.062.219-4.562 39.906c-.063.5-.334.76-.813.781l-6.5.219c-.417 0-.625-.198-.625-.594l4.594-40.062-6.219.187c-.521-.02-.781-.26-.781-.719l.781-6.5c.021-.5.292-.76.813-.78Z"/>
  </g>
  <g fill="var(--color-text)" filter="url(#b)">
    <path d="M116.906 167.766c0 1.291-.25 2.432-.75 3.422a5.543 5.543 0 0 1-2.078 2.296c-.885.552-1.932.829-3.14.829-.594 0-1.167-.037-1.719-.11a9.44 9.44 0 0 1-1.578-.312 9.139 9.139 0 0 1-1.407-.547v-2.578a9.458 9.458 0 0 0 2.297.906c.834.208 1.604.312 2.313.312.76 0 1.401-.177 1.922-.531.52-.364.916-.849 1.187-1.453a4.685 4.685 0 0 0 .422-2c0-.771-.115-1.417-.344-1.937-.229-.532-.604-1.011-1.125-1.438-.521-.427-1.224-.87-2.109-1.328a18.3 18.3 0 0 1-1.813-1.125 6.937 6.937 0 0 1-1.39-1.297 5.36 5.36 0 0 1-.891-1.719c-.208-.656-.312-1.437-.312-2.343-.021-1.198.213-2.245.703-3.141a5.357 5.357 0 0 1 2.062-2.109c.886-.5 1.896-.745 3.032-.735.864 0 1.687.11 2.468.328.792.209 1.474.464 2.047.766l-.812 2.281a8.645 8.645 0 0 0-1.891-.765 6.343 6.343 0 0 0-1.766-.266c-.698 0-1.296.151-1.796.453a3.08 3.08 0 0 0-1.141 1.25c-.261.521-.391 1.13-.391 1.828 0 .802.115 1.464.344 1.985.24.52.62.984 1.141 1.39.531.406 1.229.844 2.093 1.313.99.52 1.813 1.083 2.469 1.687a5.772 5.772 0 0 1 1.469 2.031c.323.761.484 1.646.484 2.657ZM135.58 174h-8.984v-22.844h8.984v2.219h-6.5v7.578h6.109v2.235h-6.109v8.546h6.5V174ZM154.613 174l-1.719-7.344h-5.422L145.754 174h-2.657l5.516-22.844h3.016L157.254 174h-2.641Zm-2.187-9.641-1.75-7.75c-.073-.385-.146-.76-.219-1.125a74.912 74.912 0 0 0-.188-1.078c-.052-.354-.104-.698-.156-1.031a21.023 21.023 0 0 1-.312 2.109c-.073.355-.151.719-.235 1.094l-1.703 7.781h4.563ZM175.24 167.766c0 1.291-.25 2.432-.75 3.422-.49.979-1.182 1.744-2.078 2.296-.886.552-1.932.829-3.141.829-.594 0-1.166-.037-1.719-.11a9.44 9.44 0 0 1-1.578-.312 9.167 9.167 0 0 1-1.406-.547v-2.578a9.442 9.442 0 0 0 2.297.906c.833.208 1.604.312 2.312.312.761 0 1.402-.177 1.922-.531a3.463 3.463 0 0 0 1.188-1.453 4.685 4.685 0 0 0 .422-2c0-.771-.115-1.417-.344-1.937-.229-.532-.604-1.011-1.125-1.438-.521-.427-1.224-.87-2.109-1.328a18.3 18.3 0 0 1-1.813-1.125 6.943 6.943 0 0 1-1.391-1.297 5.379 5.379 0 0 1-.89-1.719c-.208-.656-.313-1.437-.313-2.343-.02-1.198.214-2.245.703-3.141a5.36 5.36 0 0 1 2.063-2.109c.885-.5 1.896-.745 3.031-.735.865 0 1.688.11 2.469.328.792.209 1.474.464 2.047.766l-.813 2.281a8.618 8.618 0 0 0-1.89-.765 6.343 6.343 0 0 0-1.766-.266c-.698 0-1.297.151-1.797.453-.489.302-.87.719-1.14 1.25-.261.521-.391 1.13-.391 1.828 0 .802.115 1.464.344 1.985.239.52.62.984 1.14 1.39.532.406 1.23.844 2.094 1.313.99.52 1.813 1.083 2.469 1.687a5.772 5.772 0 0 1 1.469 2.031c.323.761.484 1.646.484 2.657ZM198.445 162.547c0 1.635-.13 3.167-.391 4.594-.26 1.416-.672 2.666-1.234 3.75-.552 1.073-1.281 1.911-2.188 2.515-.906.604-2.005.907-3.296.907-1.313 0-2.427-.308-3.344-.922-.917-.625-1.656-1.48-2.219-2.563-.552-1.083-.958-2.338-1.219-3.765a26.353 26.353 0 0 1-.375-4.547c0-2.605.266-4.771.797-6.5.542-1.73 1.344-3.026 2.406-3.891 1.063-.865 2.381-1.297 3.954-1.297 1.708 0 3.083.521 4.125 1.563 1.041 1.031 1.796 2.432 2.265 4.203.479 1.771.719 3.755.719 5.953Zm-11.688 0c0 2.073.172 3.818.516 5.234.354 1.407.87 2.469 1.547 3.188.677.719 1.505 1.078 2.484 1.078 1 0 1.834-.349 2.5-1.047.667-.708 1.167-1.766 1.5-3.172.344-1.417.516-3.177.516-5.281 0-3.136-.375-5.495-1.125-7.078-.75-1.584-1.87-2.375-3.359-2.375-1.021 0-1.87.359-2.547 1.078-.677.708-1.188 1.766-1.532 3.172-.333 1.396-.5 3.13-.5 5.203ZM221.775 174h-3.016l-7.968-18.906h-.125c.041.552.073 1.088.093 1.609.032.511.052 1.005.063 1.485.01.479.016.947.016 1.406V174h-2.36v-22.844h3l7.985 18.625h.093c-.031-.614-.062-1.192-.093-1.734a87.698 87.698 0 0 1-.047-1.516 57.333 57.333 0 0 1-.016-1.312v-14.063h2.375V174ZM248.841 160c1.167 0 2.162.281 2.985.844.823.562 1.453 1.344 1.89 2.344.438 1 .656 2.161.656 3.484 0 1.51-.25 2.838-.75 3.984-.489 1.146-1.213 2.042-2.171 2.688-.959.646-2.146.969-3.563.969-.864 0-1.641-.084-2.328-.25a6.154 6.154 0 0 1-1.813-.704v-2.468a8.226 8.226 0 0 0 1.891.922 6.495 6.495 0 0 0 2.063.343c.948 0 1.724-.245 2.328-.734.614-.5 1.073-1.156 1.375-1.969.302-.823.453-1.724.453-2.703 0-1.51-.333-2.661-1-3.453-.656-.792-1.604-1.188-2.844-1.188-.521 0-1.036.052-1.547.157-.51.093-1.021.218-1.531.375l-.984-.953.687-10.532h8.516v2.25h-6.453l-.469 6.907a11.36 11.36 0 0 1 2.609-.313Z"/>
  </g>
  <path fill="url(#c)" d="M85.09 50.2c.24-16.517.016-26.12 4.91-38.2v180.995c-.489 1.462-.877 2.358-2.727 4.73h-5.455c-.941-3.046-1.244-4.362-1.272-5.821l-20 11.096c-2.573.851-3.964 1.104-5.637-2.001v-8.004L70 174.077v-6.185l4.182-13.279-46.91-1.273L26 154.613v-33.106l1.273 1.273v5.821l1.09 1.091v4.002l46.546-23.102v-3.274c2.511-18.663 4.18-21.77 5.273-34.016.441-11.439.944-17.434 4.909-23.102Z"/>
  <defs>
    <filter id="a" width="209.328" height="106.219" x="102.578" y="39.25" color-interpolation-filters="sRGB" filterUnits="userSpaceOnUse">
      <feFlood flood-opacity="0" result="BackgroundImageFix"/>
      <feColorMatrix in="SourceAlpha" result="hardAlpha" values="0 0 0 0 0 0 0 0 0 0 0 0 0 0 0 0 0 0 127 0"/>
      <feOffset/>
      <feGaussianBlur stdDeviation="2.5"/>
      <feComposite in2="hardAlpha" operator="out"/>
      <feColorMatrix values="0 0 0 0 0.157153 0 0 0 0 0.283483 0 0 0 0 0.608333 0 0 0 0.4 0"/>
      <feBlend in2="BackgroundImageFix" result="effect1_dropShadow_712_99"/>
      <feBlend in="SourceGraphic" in2="effect1_dropShadow_712_99" result="shape"/>
    </filter>
    <filter id="b" width="158.138" height="33.485" x="101.234" y="147.828" color-interpolation-filters="sRGB" filterUnits="userSpaceOnUse">
      <feFlood flood-opacity="0" result="BackgroundImageFix"/>
      <feColorMatrix in="SourceAlpha" result="hardAlpha" values="0 0 0 0 0 0 0 0 0 0 0 0 0 0 0 0 0 0 127 0"/>
      <feOffset dy="2"/>
      <feGaussianBlur stdDeviation="2.5"/>
      <feComposite in2="hardAlpha" operator="out"/>
      <feColorMatrix values="0 0 0 0 0 0 0 0 0 0 0 0 0 0 0 0 0 0 0.25 0"/>
      <feBlend in2="BackgroundImageFix" result="effect1_dropShadow_712_99"/>
      <feBlend in="SourceGraphic" in2="effect1_dropShadow_712_99" result="shape"/>
    </filter>
    <linearGradient id="c" x1="58" x2="90" y1="47.5" y2="200" gradientUnits="userSpaceOnUse">
      <stop stop-color="#FFCF55"/>
      <stop offset=".432" stop-color="#FFE0AE"/>
      <stop offset=".547" stop-color="#FFD16B"/>
      <stop offset="1" stop-color="#E4A76D"/>
    </linearGradient>
  </defs>
</svg>
